<?xml version="1.0" encoding="UTF-8" standalone="no"?>
<!-- Created with Inkscape (http://www.inkscape.org/) -->

<svg
   xmlns:dc="http://purl.org/dc/elements/1.1/"
   xmlns:cc="http://creativecommons.org/ns#"
   xmlns:rdf="http://www.w3.org/1999/02/22-rdf-syntax-ns#"
   xmlns:svg="http://www.w3.org/2000/svg"
   xmlns="http://www.w3.org/2000/svg"
   xmlns:sodipodi="http://sodipodi.sourceforge.net/DTD/sodipodi-0.dtd"
   xmlns:inkscape="http://www.inkscape.org/namespaces/inkscape"
   width="744.09448819"
   height="1052.3622047"
   id="svg2"
   version="1.1"
   inkscape:version="0.48.2 r9819"
   sodipodi:docname="boy.svg">
  <defs
     id="defs4" />
  <sodipodi:namedview
     id="base"
     pagecolor="#ffffff"
     bordercolor="#666666"
     borderopacity="1.0"
     inkscape:pageopacity="0.0"
     inkscape:pageshadow="2"
     inkscape:zoom="0.35355339"
     inkscape:cx="81.343431"
     inkscape:cy="676.14641"
     inkscape:document-units="px"
     inkscape:current-layer="layer2"
     showgrid="false"
     inkscape:window-width="1280"
     inkscape:window-height="752"
     inkscape:window-x="0"
     inkscape:window-y="0"
     inkscape:window-maximized="1" />
  <metadata
     id="metadata7">
    <rdf:RDF>
      <cc:Work
         rdf:about="">
        <dc:format>image/svg+xml</dc:format>
        <dc:type
           rdf:resource="http://purl.org/dc/dcmitype/StillImage" />
        <dc:title></dc:title>
      </cc:Work>
    </rdf:RDF>
  </metadata>
  <g
     inkscape:groupmode="layer"
     id="layer2"
     inkscape:label="Layer"
     style="display:inline">
    <rect
       style="fill:#cccccc;fill-opacity:1;stroke:#000000;stroke-width:7.02705002;stroke-opacity:1"
       id="rect3087"
       width="120.58104"
       height="128.70389"
       x="269.6915"
       y="355.05533"
       ry="24.734982" />
    <path
       style="fill:#cccccc;fill-opacity:1;stroke:#000000;stroke-width:4.80000019;stroke-miterlimit:4;stroke-opacity:1;stroke-dasharray:none"
       d="m 185.00408,455.23597 c 0,0 -31.5344,13.628 -47.0252,22.84256 -15.4916,9.21264 -45.523436,32.48576 -45.523436,32.48576 -7.9432,5.66832 -18.60264,1.52808 -23.07136,-7.71672 l -0.99728,-2.06312 c -4.46864,-9.24472 -1.37384,-20.68816 53.213276,-53.322 54.5872,-32.63384 64.87704,-29.19216 69.34568,-19.94736 l 0.99728,2.06304 c 4.46864,9.2448 1.37392,20.68816 -6.93896,25.65784 z"
       id="rect3089"
       inkscape:connector-curvature="0"
       sodipodi:nodetypes="szssscsss" />
    <path
       sodipodi:nodetypes="szssscsss"
       inkscape:connector-curvature="0"
       id="path3092"
       d="m 652.66272,386.06339 c 0,0 -27.60308,-20.45008 -43.343,-29.23232 -15.73872,-8.78384 -50.93336,-23.0976 -50.93336,-23.0976 -8.8872,-4.03024 -10.65,-15.3288 -4.89208,-23.83072 l 1.28488,-1.89736 c 5.75784,-8.50184 17.21056,-11.56224 72.81676,19.30304 55.6064,30.86536 57.7882,41.49384 52.0303,49.99576 l -1.2849,1.89728 c -5.7579,8.50184 -17.2105,11.56232 -25.6786,6.86192 z"
       style="fill:#cccccc;fill-opacity:1;stroke:#000000;stroke-width:4.80000019;stroke-miterlimit:4;stroke-opacity:1;stroke-dasharray:none" />
    <path
       style="fill:#cccccc;fill-opacity:1;stroke:#000000;stroke-width:4.80000019;stroke-miterlimit:4;stroke-opacity:1;stroke-dasharray:none"
       d="m 303.56092,688.11517 c -11.75216,0 -21.21328,-9.46104 -21.21328,-21.2132 l 0,-30.30456 c 0,-11.75208 9.46112,-21.2132 21.21328,-21.2132 11.75208,0 21.2132,9.46112 21.2132,21.2132 l 0,30.30456 c 0,11.75216 -9.46112,21.2132 -21.2132,21.2132"
       id="rect3094"
       inkscape:connector-curvature="0"
       sodipodi:nodetypes="csssssc" />
    <path
       style="fill:#cccccc;fill-opacity:1;stroke:#000000;stroke-width:4.80000019;stroke-miterlimit:4;stroke-opacity:1;stroke-dasharray:none"
       d="m 491.28572,434.72331 c -11.75216,0 -21.21328,-9.46104 -21.21328,-21.2132 l 0,-30.30456 c 0,-11.75208 9.46112,-21.2132 21.21328,-21.2132 11.75208,0 21.2132,9.46112 21.2132,21.2132 l 0,30.30456 c 0,11.75216 -9.46112,21.2132 -21.2132,21.2132"
       id="path3878"
       inkscape:connector-curvature="0"
       sodipodi:nodetypes="csssssc" />
    <g
       id="g3916"
       transform="matrix(8,0,0,8,-706.51723,-4226.0875)">
      <path
         sodipodi:nodetypes="czzssssscsc"
         inkscape:connector-curvature="0"
         d="m 167.47919,596.16005 c 0,1.36408 -0.3753,2.15486 -2.03011,2.10333 -1.65481,-0.0515 -3.42104,0.0218 -5.24819,-0.0695 -1.82715,-0.0914 -3.09187,-1.37897 -3.09187,-3.09187 l 0,-3.4127 c 0,-1.7129 0.71606,-3.09188 2.42896,-3.09188 l 1.26613,0 c 1.7129,0 2.84272,0.64207 2.77217,2.35352 l -0.0943,2.2887 c 0.53394,-0.499 4.07256,-0.86399 4.03391,1.07845 z"
         style="fill:#cccccc;fill-opacity:1;stroke:#000000;stroke-width:0.60000002;stroke-miterlimit:4;stroke-opacity:1"
         id="path3918" />
      <path
         style="fill:none;stroke:#000000;stroke-width:0.60000002;stroke-linecap:butt;stroke-linejoin:miter;stroke-miterlimit:4;stroke-opacity:1;stroke-dasharray:none"
         d="m 160.54528,588.77441 c 1.63518,1.10485 1.10485,4.94974 1.10485,4.94974"
         id="path3920"
         inkscape:connector-curvature="0"
         sodipodi:nodetypes="cc" />
    </g>
    <g
       id="g3912"
       transform="matrix(8,0,0,8,-1148.1807,-4086.0286)">
      <path
         id="path3887"
         style="fill:#cccccc;fill-opacity:1;stroke:#000000;stroke-width:0.60000002;stroke-miterlimit:4;stroke-opacity:1"
         d="m 167.47919,596.16005 c 0,1.36408 -0.3753,2.15486 -2.03011,2.10333 -1.65481,-0.0515 -3.42104,0.0218 -5.24819,-0.0695 -1.82715,-0.0914 -3.09187,-1.37897 -3.09187,-3.09187 l 0,-3.4127 c 0,-1.7129 0.71606,-3.09188 2.42896,-3.09188 l 1.26613,0 c 1.7129,0 2.84272,0.64207 2.77217,2.35352 l -0.0943,2.2887 c 0.53394,-0.499 4.07256,-0.86399 4.03391,1.07845 z"
         inkscape:connector-curvature="0"
         sodipodi:nodetypes="czzssssscsc" />
      <path
         sodipodi:nodetypes="cc"
         inkscape:connector-curvature="0"
         id="path3891"
         d="m 160.54528,588.77441 c 1.63518,1.10485 1.10485,4.94974 1.10485,4.94974"
         style="fill:none;stroke:#000000;stroke-width:0.60000002;stroke-linecap:butt;stroke-linejoin:miter;stroke-miterlimit:4;stroke-opacity:1;stroke-dasharray:none" />
    </g>
    <path
       style="fill:#cccccc;fill-opacity:1;stroke:#000000;stroke-width:4.80000019;stroke-miterlimit:4;stroke-opacity:1"
       d="m 181.01362,348.99462 c 0,13.66832 -6.39416,13.43504 -24.7488,13.43504 -18.35464,0 -4.94968,35.58864 -31.81976,16.26344 -11.09648,-7.98064 4.97984,-54.4472 23.33448,-54.4472 18.35464,0 33.23408,11.0804 33.23408,24.74872 z"
       id="path3922"
       inkscape:connector-curvature="0"
       sodipodi:nodetypes="sssss" />
    <path
       sodipodi:nodetypes="sssss"
       inkscape:connector-curvature="0"
       id="path3925"
       d="m 648.61392,389.93067 c 0,13.66832 6.3942,13.43504 24.7488,13.43504 18.3547,0 4.9497,35.58864 31.8198,16.26344 11.0965,-7.98064 -4.9798,-54.4472 -23.3345,-54.4472 -18.3546,0 -33.2341,11.0804 -33.2341,24.74872 z"
       style="fill:#cccccc;fill-opacity:1;stroke:#000000;stroke-width:4.80000019;stroke-miterlimit:4;stroke-opacity:1" />
    <rect
       style="fill:#cccccc;fill-opacity:1;stroke:#000000;stroke-width:3.93614364;stroke-miterlimit:4;stroke-opacity:1;stroke-dasharray:none"
       id="rect3960"
       width="212.86386"
       height="230.86385"
       x="143.84828"
       y="19.771833"
       ry="60.479031" />
  </g>
  <g
     inkscape:label="Layer 1"
     inkscape:groupmode="layer"
     id="layer1"
     style="opacity:0.35833333;display:inline" />
</svg>
